<svg width="27" height="25" viewBox="0 0 27 25" fill="none" xmlns="http://www.w3.org/2000/svg">
<path d="M0.772736 3.77295C0.772736 2.9773 1.04092 2.21424 1.51829 1.65163C1.99566 1.08902 2.64311 0.772949 3.31822 0.772949H14.7729C15.448 0.772949 16.0954 1.08902 16.5728 1.65163C17.0502 2.21424 17.3184 2.9773 17.3184 3.77295V6.77295C17.3184 7.17077 17.1843 7.5523 16.9456 7.83361C16.7069 8.11491 16.3832 8.27295 16.0456 8.27295C15.7081 8.27295 15.3843 8.11491 15.1457 7.83361C14.907 7.5523 14.7729 7.17077 14.7729 6.77295V3.77295H3.31822V21.7729H14.7729V18.7729C14.7729 18.3751 14.907 17.9936 15.1457 17.7123C15.3843 17.431 15.7081 17.2729 16.0456 17.2729C16.3832 17.2729 16.7069 17.431 16.9456 17.7123C17.1843 17.9936 17.3184 18.3751 17.3184 18.7729V21.7729C17.3184 22.5686 17.0502 23.3317 16.5728 23.8943C16.0954 24.4569 15.448 24.7729 14.7729 24.7729H3.31822C2.64311 24.7729 1.99566 24.4569 1.51829 23.8943C1.04092 23.3317 0.772736 22.5686 0.772736 21.7729V3.77295ZM20.2368 7.21245C20.4754 6.93124 20.7991 6.77327 21.1366 6.77327C21.4741 6.77327 21.7977 6.93124 22.0364 7.21245L25.8546 11.7125C26.0932 11.9937 26.2273 12.3752 26.2273 12.7729C26.2273 13.1707 26.0932 13.5522 25.8546 13.8334L22.0364 18.3334C21.7964 18.6067 21.4749 18.7579 21.1412 18.7545C20.8075 18.751 20.4882 18.5933 20.2523 18.3152C20.0163 18.0371 19.8824 17.6608 19.8795 17.2676C19.8766 16.8743 20.0049 16.4954 20.2368 16.2125L21.8824 14.2729H9.68192C9.34437 14.2729 9.02064 14.1149 8.78196 13.8336C8.54327 13.5523 8.40918 13.1708 8.40918 12.7729C8.40918 12.3751 8.54327 11.9936 8.78196 11.7123C9.02064 11.431 9.34437 11.2729 9.68192 11.2729H21.8824L20.2368 9.33345C19.9982 9.05216 19.8641 8.6707 19.8641 8.27295C19.8641 7.8752 19.9982 7.49374 20.2368 7.21245Z" fill="#BD837F"/>
</svg>
